# xmcd
#
# Track frame offsets: 
#        150
#        15585
#        35842
#        52635
#        72510
#        94975
#        112742
#        128260
#        147690
#        160855
#        178220
#        196305
#        217727
#        235967
#        253732
#        273322
#        292025
#        309827
#        328572
#
# Disc length: 4613 seconds
#
# Revision: 5
# Processed by: cddbd v1.5.2PL0 Copyright (c) Steve Scherf et al.
# Submitted via: ExactAudioCopy v1.3
#
DISCID=0f120313
DTITLE=Simply Red - It's Only Love
DYEAR=2000
DGENRE=Rock
TTITLE0=If You Don't Know Me By Now
TTITLE1=Holding Back The Years
TTITLE2=Say You Love Me
TTITLE3=The Air That I Breathe
TTITLE4=It's Only Love
TTITLE5=You've Got It
TTITLE6=Every Time We Say Goodbye
TTITLE7=For Your Babies
TTITLE8=Lady Godiva's Room
TTITLE9=Your Eyes (Mousse T Acoustic)
TTITLE10=Thank You
TTITLE11=Remembering The First Time
TTITLE12=Angel
TTITLE13=Night Nurse
TTITLE14=Never Never Love
TTITLE15=More
TTITLE16=Mellow My Mind
TTITLE17=Stars
TTITLE18=Ain't That A Lot Of Love
EXTD=
EXTT0=
EXTT1=
EXTT2=
EXTT3=
EXTT4=
EXTT5=
EXTT6=
EXTT7=
EXTT8=
EXTT9=
EXTT10=
EXTT11=
EXTT12=
EXTT13=
EXTT14=
EXTT15=
EXTT16=
EXTT17=
EXTT18=
PLAYORDER=
